REM DIRINDEX 1\2,1\3,1\4
REM DIRNAME folder01,folder02,folder03,folder04
TITLE ""
FILE "DISC2Track34.mp3" MP3
  TRACK 01 AUDIO
    TITLE "0:"
    INDEX 01 00:00:00
  TRACK 02 AUDIO
    TITLE "4:cjc105_4128"
    INDEX 01 00:00:15
  TRACK 03 AUDIO
    TITLE "0:"
    INDEX 01 00:03:35
  TRACK 04 AUDIO
    TITLE "3:cjc105_4129"
    INDEX 01 00:04:09
  TRACK 05 AUDIO
    TITLE "2:cjc105_4130"
    INDEX 01 00:05:16
  TRACK 06 AUDIO
    TITLE "3:cjc105_4131"
    INDEX 01 00:07:25
  TRACK 07 AUDIO
    TITLE "2:cjc105_4132"
    INDEX 01 00:08:30
  TRACK 08 AUDIO
    TITLE "3:cjc105_4133"
    INDEX 01 00:10:63
  TRACK 09 AUDIO
    TITLE "2:cjc105_4134"
    INDEX 01 00:11:74
  TRACK 10 AUDIO
    TITLE "3:cjc105_4135"
    INDEX 01 00:14:62
  TRACK 11 AUDIO
    TITLE "2:cjc105_4136"
    INDEX 01 00:16:02
  TRACK 12 AUDIO
    TITLE "3:cjc105_4137"
    INDEX 01 00:19:32
  TRACK 13 AUDIO
    TITLE "2:cjc105_4138"
    INDEX 01 00:20:16
  TRACK 14 AUDIO
    TITLE "3:cjc105_4139"
    INDEX 01 00:21:66
  TRACK 15 AUDIO
    TITLE "2:cjc105_4140"
    INDEX 01 00:23:08
  TRACK 16 AUDIO
    TITLE "3:cjc105_4141"
    INDEX 01 00:26:38
  TRACK 17 AUDIO
    TITLE "2:cjc105_4142"
    INDEX 01 00:27:22
  TRACK 18 AUDIO
    TITLE "3:cjc105_4143"
    INDEX 01 00:28:23
  TRACK 19 AUDIO
    TITLE "2:cjc105_4144"
    INDEX 01 00:29:52
  TRACK 20 AUDIO
    TITLE "3:cjc105_4145"
    INDEX 01 00:33:07
  TRACK 21 AUDIO
    TITLE "2:cjc105_4146"
    INDEX 01 00:34:26
  TRACK 22 AUDIO
    TITLE "3:cjc105_4147"
    INDEX 01 00:37:42
  TRACK 23 AUDIO
    TITLE "2:cjc105_4148"
    INDEX 01 00:38:53
  TRACK 24 AUDIO
    TITLE "3:cjc105_4149"
    INDEX 01 00:41:26
  TRACK 25 AUDIO
    TITLE "2:cjc105_4150"
    INDEX 01 00:42:37
  TRACK 26 AUDIO
    TITLE "3:cjc105_4151"
    INDEX 01 00:45:18
  TRACK 27 AUDIO
    TITLE "2:cjc105_4152"
    INDEX 01 00:46:33
  TRACK 28 AUDIO
    TITLE "3:cjc105_4153"
    INDEX 01 00:48:73
  TRACK 29 AUDIO
    TITLE "2:cjc105_4154"
    INDEX 01 00:50:07
  TRACK 30 AUDIO
    TITLE "3:cjc105_4155"
    INDEX 01 00:52:57
  TRACK 31 AUDIO
    TITLE "2:cjc105_4156"
    INDEX 01 00:54:03
  TRACK 32 AUDIO
    TITLE "3:cjc105_4157"
    INDEX 01 00:56:35
  TRACK 33 AUDIO
    TITLE "2:cjc105_4158"
    INDEX 01 00:57:39
  TRACK 34 AUDIO
    TITLE "3:cjc105_4159"
    INDEX 01 00:59:59
  TRACK 35 AUDIO
    TITLE "2:cjc105_4160"
    INDEX 01 01:00:41
  TRACK 36 AUDIO
    TITLE "3:cjc105_4161"
    INDEX 01 01:02:01
  TRACK 37 AUDIO
    TITLE "2:cjc105_4162"
    INDEX 01 01:03:00
  TRACK 38 AUDIO
    TITLE "3:cjc105_4163"
    INDEX 01 01:04:37
  TRACK 39 AUDIO
    TITLE "2:cjc105_4164"
    INDEX 01 01:05:46
  TRACK 40 AUDIO
    TITLE "3:cjc105_4165"
    INDEX 01 01:06:67
  TRACK 41 AUDIO
    TITLE "2:cjc105_4166"
    INDEX 01 01:08:05
  TRACK 42 AUDIO
    TITLE "3:cjc105_4167"
    INDEX 01 01:09:34
  TRACK 43 AUDIO
    TITLE "2:cjc105_4168"
    INDEX 01 01:10:55
  TRACK 44 AUDIO
    TITLE "3:cjc105_4169"
    INDEX 01 01:13:34
  TRACK 45 AUDIO
    TITLE "2:cjc105_4170"
    INDEX 01 01:14:45
  TRACK 46 AUDIO
    TITLE "3:cjc105_4171"
    INDEX 01 01:16:05
  TRACK 47 AUDIO
    TITLE "2:cjc105_4172"
    INDEX 01 01:17:24
  TRACK 48 AUDIO
    TITLE "3:cjc105_4173"
    INDEX 01 01:19:05
  TRACK 49 AUDIO
    TITLE "2:cjc105_4174"
    INDEX 01 01:20:34
  TRACK 50 AUDIO
    TITLE "3:cjc105_4175"
    INDEX 01 01:22:09
  TRACK 51 AUDIO
    TITLE "2:cjc105_4176"
    INDEX 01 01:23:13
  TRACK 52 AUDIO
    TITLE "3:cjc105_4177"
    INDEX 01 01:26:72
  TRACK 53 AUDIO
    TITLE "2:cjc105_4178"
    INDEX 01 01:28:06
  TRACK 54 AUDIO
    TITLE "3:cjc105_4179"
    INDEX 01 01:31:12
  TRACK 55 AUDIO
    TITLE "2:cjc105_4180"
    INDEX 01 01:32:13
  TRACK 56 AUDIO
    TITLE "3:cjc105_4181"
    INDEX 01 01:33:54
  TRACK 57 AUDIO
    TITLE "2:cjc105_4182"
    INDEX 01 01:35:02
  TRACK 58 AUDIO
    TITLE "3:cjc105_4183"
    INDEX 01 01:36:15
  TRACK 59 AUDIO
    TITLE "2:cjc105_4184"
    INDEX 01 01:37:24
  TRACK 60 AUDIO
    TITLE "3:cjc105_4185"
    INDEX 01 01:38:69
  TRACK 61 AUDIO
    TITLE "2:cjc105_4186"
    INDEX 01 01:40:25
  TRACK 62 AUDIO
    TITLE "3:cjc105_4187"
    INDEX 01 01:42:51
  TRACK 63 AUDIO
    TITLE "2:cjc105_4188"
    INDEX 01 01:44:01
  TRACK 64 AUDIO
    TITLE "3:cjc105_4189"
    INDEX 01 01:46:63
  TRACK 65 AUDIO
    TITLE "2:cjc105_4190"
    INDEX 01 01:48:30
  TRACK 66 AUDIO
    TITLE "3:cjc105_4191"
    INDEX 01 01:50:02
  TRACK 67 AUDIO
    TITLE "2:cjc105_4192"
    INDEX 01 01:51:23
  TRACK 68 AUDIO
    TITLE "3:cjc105_4193"
    INDEX 01 01:52:46
  TRACK 69 AUDIO
    TITLE "2:cjc105_4194"
    INDEX 01 01:53:39
  TRACK 70 AUDIO
    TITLE "3:cjc105_4195"
    INDEX 01 01:54:50
  TRACK 71 AUDIO
    TITLE "2:cjc105_4196"
    INDEX 01 01:55:58
  TRACK 72 AUDIO
    TITLE "3:cjc105_4197"
    INDEX 01 01:57:27
  TRACK 73 AUDIO
    TITLE "2:cjc105_4198"
    INDEX 01 01:58:62
  TRACK 74 AUDIO
    TITLE "3:cjc105_4199"
    INDEX 01 02:00:61
  TRACK 75 AUDIO
    TITLE "2:cjc105_4200"
    INDEX 01 02:02:11
  TRACK 76 AUDIO
    TITLE "3:cjc105_4201"
    INDEX 01 02:04:15
  TRACK 77 AUDIO
    TITLE "2:cjc105_4202"
    INDEX 01 02:05:07
  TRACK 78 AUDIO
    TITLE "3:cjc105_4203"
    INDEX 01 02:06:73
  TRACK 79 AUDIO
    TITLE "2:cjc105_4204"
    INDEX 01 02:07:63
  TRACK 80 AUDIO
    TITLE "3:cjc105_4205"
    INDEX 01 02:09:54
  TRACK 81 AUDIO
    TITLE "2:cjc105_4206"
    INDEX 01 02:11:02
  TRACK 82 AUDIO
    TITLE "3:cjc105_4207"
    INDEX 01 02:13:09
  TRACK 83 AUDIO
    TITLE "2:cjc105_4208"
    INDEX 01 02:14:28
  TRACK 84 AUDIO
    TITLE "3:cjc105_4209"
    INDEX 01 02:15:52
  TRACK 85 AUDIO
    TITLE "2:cjc105_4210"
    INDEX 01 02:16:58
  TRACK 86 AUDIO
    TITLE "3:cjc105_4211"
    INDEX 01 02:18:39
  TRACK 87 AUDIO
    TITLE "2:cjc105_4212"
    INDEX 01 02:19:72
  TRACK 88 AUDIO
    TITLE "3:cjc105_4213"
    INDEX 01 02:23:66
  TRACK 89 AUDIO
    TITLE "2:cjc105_4214"
    INDEX 01 02:24:71
  TRACK 90 AUDIO
    TITLE "3:cjc105_4215"
    INDEX 01 02:27:07
  TRACK 91 AUDIO
    TITLE "2:cjc105_4216"
    INDEX 01 02:27:58
  TRACK 92 AUDIO
    TITLE "3:cjc105_4217"
    INDEX 01 02:30:03
  TRACK 93 AUDIO
    TITLE "2:cjc105_4218"
    INDEX 01 02:31:12
  TRACK 94 AUDIO
    TITLE "3:cjc105_4219"
    INDEX 01 02:35:18
  TRACK 95 AUDIO
    TITLE "2:cjc105_4220"
    INDEX 01 02:36:57
  TRACK 96 AUDIO
    TITLE "3:cjc105_4221"
    INDEX 01 02:40:43
  TRACK 97 AUDIO
    TITLE "2:cjc105_4222"
    INDEX 01 02:41:38
  TRACK 98 AUDIO
    TITLE "3:cjc105_4223"
    INDEX 01 02:42:67
  TRACK 99 AUDIO
    TITLE "2:cjc105_4224"
    INDEX 01 02:43:72
  TRACK 100 AUDIO
    TITLE "3:cjc105_4225"
    INDEX 01 02:46:57
  TRACK 101 AUDIO
    TITLE "2:cjc105_4226"
    INDEX 01 02:48:03
  TRACK 102 AUDIO
    TITLE "3:cjc105_4227"
    INDEX 01 02:49:53
  TRACK 103 AUDIO
    TITLE "2:cjc105_4228"
    INDEX 01 02:51:17
  TRACK 104 AUDIO
    TITLE "3:cjc105_4229"
    INDEX 01 02:53:28
  TRACK 105 AUDIO
    TITLE "2:cjc105_4230"
    INDEX 01 02:54:37
  TRACK 106 AUDIO
    TITLE "3:cjc105_4231"
    INDEX 01 02:56:71
  TRACK 107 AUDIO
    TITLE "2:cjc105_4232"
    INDEX 01 02:58:01
  TRACK 108 AUDIO
    TITLE "3:cjc105_4233"
    INDEX 01 03:00:10
  TRACK 109 AUDIO
    TITLE "2:cjc105_4234"
    INDEX 01 03:01:39
  TRACK 110 AUDIO
    TITLE "3:cjc105_4235"
    INDEX 01 03:04:47
  TRACK 111 AUDIO
    TITLE "2:cjc105_4236"
    INDEX 01 03:05:52
  TRACK 112 AUDIO
    TITLE "3:cjc105_4237"
    INDEX 01 03:07:45
  TRACK 113 AUDIO
    TITLE "2:cjc105_4238"
    INDEX 01 03:08:57
  TRACK 114 AUDIO
    TITLE "3:cjc105_4239"
    INDEX 01 03:10:32
  TRACK 115 AUDIO
    TITLE "2:cjc105_4240"
    INDEX 01 03:11:51
  TRACK 116 AUDIO
    TITLE "3:cjc105_4241"
    INDEX 01 03:13:05
  TRACK 117 AUDIO
    TITLE "2:cjc105_4242"
    INDEX 01 03:14:51
  TRACK 118 AUDIO
    TITLE "3:cjc105_4243"
    INDEX 01 03:16:35
  TRACK 119 AUDIO
    TITLE "2:cjc105_4244"
    INDEX 01 03:17:56
  TRACK 120 AUDIO
    TITLE "3:cjc105_4245"
    INDEX 01 03:19:13
  TRACK 121 AUDIO
    TITLE "2:cjc105_4246"
    INDEX 01 03:20:32
  TRACK 122 AUDIO
    TITLE "3:cjc105_4247"
    INDEX 01 03:21:65
  TRACK 123 AUDIO
    TITLE "2:cjc105_4248"
    INDEX 01 03:22:74
  TRACK 124 AUDIO
    TITLE "3:cjc105_4249"
    INDEX 01 03:24:28
  TRACK 125 AUDIO
    TITLE "2:cjc105_4250"
    INDEX 01 03:25:43
  TRACK 126 AUDIO
    TITLE "3:cjc105_4251"
    INDEX 01 03:27:50
  TRACK 127 AUDIO
    TITLE "2:cjc105_4252"
    INDEX 01 03:28:69
  TRACK 128 AUDIO
    TITLE "3:cjc105_4253"
    INDEX 01 03:30:58
  TRACK 129 AUDIO
    TITLE "2:cjc105_4254"
    INDEX 01 03:31:73
  TRACK 130 AUDIO
    TITLE "3:cjc105_4255"
    INDEX 01 03:33:19
  TRACK 131 AUDIO
    TITLE "2:cjc105_4256"
    INDEX 01 03:34:68
  TRACK 132 AUDIO
    TITLE "3:cjc105_4257"
    INDEX 01 03:36:65
  TRACK 133 AUDIO
    TITLE "2:cjc105_4258"
    INDEX 01 03:38:40
  TRACK 134 AUDIO
    TITLE "3:cjc105_4259"
    INDEX 01 03:40:21
  TRACK 135 AUDIO
    TITLE "2:cjc105_4260"
    INDEX 01 03:41:42
  TRACK 136 AUDIO
    TITLE "3:cjc105_4261"
    INDEX 01 03:45:32
  TRACK 137 AUDIO
    TITLE "2:cjc105_4262"
    INDEX 01 03:46:47
  TRACK 138 AUDIO
    TITLE "3:cjc105_4263"
    INDEX 01 03:50:63
  TRACK 139 AUDIO
    TITLE "2:cjc105_4264"
    INDEX 01 03:51:54
  TRACK 140 AUDIO
    TITLE "3:cjc105_4265"
    INDEX 01 03:53:30
  TRACK 141 AUDIO
    TITLE "2:cjc105_4266"
    INDEX 01 03:54:14
  TRACK 142 AUDIO
    TITLE "3:cjc105_4267"
    INDEX 01 03:55:19
  TRACK 143 AUDIO
    TITLE "2:cjc105_4268"
    INDEX 01 03:56:26
  TRACK 144 AUDIO
    TITLE "3:cjc105_4269"
    INDEX 01 03:57:53
  TRACK 145 AUDIO
    TITLE "2:cjc105_4270"
    INDEX 01 03:59:01
  TRACK 146 AUDIO
    TITLE "0:"
    INDEX 01 04:00:67
